<?xml version="1.0" encoding="iso-8859-1"?>
<!-- Generator: Adobe Illustrator 16.0.0, SVG Export Plug-In . SVG Version: 6.00 Build 0)  -->
<!DOCTYPE svg PUBLIC "-//W3C//DTD SVG 1.1//EN" "http://www.w3.org/Graphics/SVG/1.1/DTD/svg11.dtd">
<svg version="1.1" id="Capa_1" xmlns="http://www.w3.org/2000/svg" xmlns:xlink="http://www.w3.org/1999/xlink" x="0px" y="0px"
	 width="38.203px" height="38.203px" viewBox="0 0 38.203 38.203" style="enable-background:new 0 0 38.203 38.203;"
	 xml:space="preserve">
<g>
	<path d="M10.417,14.548c0.104,0.115,0.154,0.293,0.154,0.531s-0.056,0.414-0.166,0.529c-0.113,0.114-0.285,0.171-0.517,0.171H8.866
		v-1.405h1.072C10.154,14.373,10.313,14.432,10.417,14.548z M38.203,19.897l-0.186,2.888l-0.797,0.555v1.779h-1.425
		c0.086,0.293,0.134,0.604,0.134,0.922c0,1.828-1.488,3.315-3.316,3.315s-3.316-1.487-3.316-3.315c0-0.209,0.021-0.414,0.061-0.611
		c-0.229,0.068-0.428,0.061-0.428,0.061h-6.08c-0.186-0.369,0.246-0.738,0.246-0.738H28.5c0.613-0.43-0.062-0.735-0.062-0.735
		h-5.526c-0.615,0.185-0.738,1.166-0.738,1.166H9.828v-1.104c0,0-0.326,0-0.836,0c0.406,0.551,0.65,1.229,0.65,1.967
		c0,1.828-1.488,3.315-3.316,3.315S3.01,27.873,3.01,26.044c0-0.736,0.244-1.414,0.65-1.967c-0.17,0-0.33,0-0.467,0
		C1.473,24.078,0,23.524,0,23.524v-1.965h2.271H2.38c-0.103-0.188-0.16-0.408-0.16-0.64V10.194c0-0.746,0.605-1.351,1.352-1.351
		h17.123c0.746,0,1.352,0.604,1.352,1.351v10.724c0,0.231-0.059,0.449-0.16,0.641h1.271V10.256h7.187l3.625,5.098
		c3.069,0.492,2.579,1.659,2.579,1.659h-0.799v1.535h1.535v0.982L38.203,19.897z M4.337,18.676h0.449h0.446v-2.188h1.897v-0.464
		v-0.461H5.232v-1.168h2.144v-0.464V13.47H4.337V18.676z M8.167,26.039c0-1.018-0.826-1.844-1.842-1.844
		c-1.018,0-1.844,0.826-1.844,1.844c0,1.017,0.826,1.843,1.844,1.843C7.341,27.881,8.167,27.055,8.167,26.039z M11.542,18.541
		c-0.07-0.036-0.117-0.096-0.142-0.181c-0.024-0.085-0.034-0.237-0.034-0.457V17.32c0-0.496-0.141-0.849-0.418-1.06
		c-0.033-0.025-0.072-0.049-0.113-0.07c0.095-0.052,0.179-0.117,0.255-0.195c0.253-0.257,0.378-0.613,0.378-1.069
		c0-0.474-0.125-0.835-0.376-1.083c-0.253-0.248-0.618-0.372-1.101-0.372H8.417H7.97v5.205h0.449h0.447V16.65h0.986
		c0.227,0,0.389,0.063,0.482,0.188c0.094,0.124,0.14,0.331,0.134,0.621l-0.005,0.298c-0.002,0.16,0.008,0.329,0.027,0.506
		c0.021,0.177,0.045,0.314,0.076,0.411h0.975L11.542,18.541L11.542,18.541z M15.501,17.751h-2.344V16.41h2.067v-0.464v-0.461h-2.067
		v-1.09h2.262v-0.464V13.47h-3.157v5.205h3.239V18.21V17.751z M19.467,17.751h-2.345V16.41h2.067v-0.464v-0.461h-2.067v-1.09h2.264
		v-0.464V13.47h-3.159v5.205h3.24V18.21V17.751z M26.777,16.15h-2.148v0.86C27.455,17.011,26.777,16.15,26.777,16.15z
		 M32.307,16.089l-2.703-4.668h-4.729l-0.062,3.869l4.358-0.061l0.492,0.859L32.307,16.089L32.307,16.089z M34.455,26.039
		c0-1.018-0.826-1.844-1.843-1.844s-1.843,0.826-1.843,1.844c0,1.017,0.826,1.843,1.843,1.843
		C33.628,27.881,34.455,27.055,34.455,26.039z"/>
</g>
<g>
</g>
<g>
</g>
<g>
</g>
<g>
</g>
<g>
</g>
<g>
</g>
<g>
</g>
<g>
</g>
<g>
</g>
<g>
</g>
<g>
</g>
<g>
</g>
<g>
</g>
<g>
</g>
<g>
</g>
</svg>
